<svg width="1251" height="654" viewBox="0 0 1251 654" fill="none" xmlns="http://www.w3.org/2000/svg">
<g clip-path="url(#clip0_17407_616)">
<g clip-path="url(#clip1_17407_616)" filter="url(#filter0_f_17407_616)">
<path opacity="0.15" d="M759.918 424.36C775.401 414.854 791.559 400.535 801.223 383.78C810.879 367.04 814.037 347.908 803.63 328.669C801.486 324.705 780.882 288.251 732.528 279.473C703.091 274.128 681.078 282.248 657.839 291.196C657.329 291.393 656.818 291.589 656.307 291.786C633.522 300.567 609.404 309.862 575.997 307.642C539.003 305.183 514.561 290.198 494.561 276.472C492.668 275.172 490.815 273.885 488.997 272.622C481.204 267.206 474.036 262.225 466.916 258.561C458.154 254.052 449.517 251.571 439.971 252.757C417.356 255.569 396.633 278.123 388.785 307.069C380.949 335.97 386 371.11 414.796 398.937C449.533 432.506 514.937 451.686 582.175 456.042C649.404 460.398 718.283 449.921 759.918 424.36Z" fill="#EBC136" stroke="black"/>
<path opacity="0.15" d="M930.403 269.949C947.22 259.271 965.558 237.779 954.212 216.083C953.043 213.846 941.867 193.401 915.59 188.51C883.585 182.554 867.681 206.84 830.859 204.365C790.982 201.684 778.206 171.089 757.257 173.808C732.486 177.023 712.106 224.766 743.384 255.974C781.063 293.57 885.183 298.661 930.403 269.949Z" fill="#EBC136"/>
<path opacity="0.15" d="M467.873 132.038C480.442 153.763 492.868 195.202 480.631 232.638C479.369 236.498 467.435 271.705 444.991 276.649C417.653 282.671 407.611 236.552 376.728 235.589C343.283 234.546 328.701 287.812 311.668 279.825C291.526 270.381 280.819 181.322 310.835 129.677C346.996 67.462 434.074 73.623 467.873 132.038Z" fill="#EBC136"/>
<path opacity="0.15" d="M1035.86 394.685C1057.5 375.66 1080.18 339.051 1062.9 305.334C1061.12 301.857 1044.18 270.136 1008.37 265.109C964.74 258.987 945.59 299.834 895.804 299.842C841.889 299.851 821.855 251.954 793.914 258.607C760.875 266.474 737.878 345.591 782.867 392.468C837.065 448.939 977.664 445.842 1035.86 394.685Z" fill="#8047F8"/>
<path opacity="0.15" d="M416.074 378.013C435.161 355.861 455.286 313.528 440.39 275.125C438.854 271.165 424.246 235.046 392.916 229.832C354.756 223.482 337.697 270.621 294.099 271.397C246.885 272.236 229.68 217.614 205.165 225.673C176.176 235.203 155.478 326.292 194.544 379.361C241.607 443.291 364.752 437.578 416.074 378.013Z" fill="#8047F8"/>
</g>
</g>
<defs>
<filter id="filter0_f_17407_616" x="-160" y="-160" width="1283" height="974" filterUnits="userSpaceOnUse" color-interpolation-filters="sRGB">
<feFlood flood-opacity="0" result="BackgroundImageFix"/>
<feBlend mode="normal" in="SourceGraphic" in2="BackgroundImageFix" result="shape"/>
<feGaussianBlur stdDeviation="80" result="effect1_foregroundBlur_17407_616"/>
</filter>
<clipPath id="clip0_17407_616">
<rect width="1251" height="654" fill="white"/>
</clipPath>
<clipPath id="clip1_17407_616">
<rect width="963" height="654" fill="white"/>
</clipPath>
</defs>
</svg>
