<svg width="668" height="448" viewBox="0 0 668 448" fill="none" xmlns="http://www.w3.org/2000/svg">
<g opacity="0.15" filter="url(#filter0_d_17407_615)">
<path d="M603.517 174.535C636.354 213.124 662.985 280.213 613.908 327.577C608.848 332.46 561.368 376.763 489.962 371.262C402.988 364.561 385.153 292.034 289.168 273.206C185.221 252.816 124.213 321.804 73.4505 300.611C13.4247 275.551 6.05546 140.399 114.703 82.4721C245.588 12.6895 515.222 70.7729 603.517 174.535Z" fill="#EBC136"/>
</g>
<g opacity="0.15" filter="url(#filter1_d_17407_615)">
<path d="M127.614 404.455C102.249 384.458 77.5961 344.352 103.528 304.138C106.201 299.991 131.462 262.099 177.677 253.251C233.969 242.475 253.626 287.753 317.054 283.49C385.742 278.873 416.825 222.135 451.65 227.379C492.83 233.58 512.947 322.489 450.189 380.197C374.585 449.717 195.817 458.226 127.614 404.455Z" fill="#EBC136"/>
</g>
<defs>
<filter id="filter0_d_17407_615" x="26.1777" y="51.9709" width="618.733" height="327.763" filterUnits="userSpaceOnUse" color-interpolation-filters="sRGB">
<feFlood flood-opacity="0" result="BackgroundImageFix"/>
<feColorMatrix in="SourceAlpha" type="matrix" values="0 0 0 0 0 0 0 0 0 0 0 0 0 0 0 0 0 0 127 0" result="hardAlpha"/>
<feOffset dy="4"/>
<feGaussianBlur stdDeviation="2"/>
<feComposite in2="hardAlpha" operator="out"/>
<feColorMatrix type="matrix" values="0 0 0 0 0 0 0 0 0 0 0 0 0 0 0 0 0 0 0.25 0"/>
<feBlend mode="normal" in2="BackgroundImageFix" result="effect1_dropShadow_17407_615"/>
<feBlend mode="normal" in="SourceGraphic" in2="effect1_dropShadow_17407_615" result="shape"/>
</filter>
<filter id="filter1_d_17407_615" x="88.5002" y="227.037" width="405.705" height="220.34" filterUnits="userSpaceOnUse" color-interpolation-filters="sRGB">
<feFlood flood-opacity="0" result="BackgroundImageFix"/>
<feColorMatrix in="SourceAlpha" type="matrix" values="0 0 0 0 0 0 0 0 0 0 0 0 0 0 0 0 0 0 127 0" result="hardAlpha"/>
<feOffset dy="4"/>
<feGaussianBlur stdDeviation="2"/>
<feComposite in2="hardAlpha" operator="out"/>
<feColorMatrix type="matrix" values="0 0 0 0 0 0 0 0 0 0 0 0 0 0 0 0 0 0 0.25 0"/>
<feBlend mode="normal" in2="BackgroundImageFix" result="effect1_dropShadow_17407_615"/>
<feBlend mode="normal" in="SourceGraphic" in2="effect1_dropShadow_17407_615" result="shape"/>
</filter>
</defs>
</svg>
