<svg width="1520" height="800" fill="none" xmlns="http://www.w3.org/2000/svg">
  <!-- <g filter="url(#filter0_f_212_16580)" transform="scale(0.6)"> -->
  <g filter="url(#filter0_f_212_16580)">
    <path opacity="0.2"
      d="M1394.3 321.291C1427.61 362.471 1454.62 434.064 1404.84 484.607C1399.71 489.818 1351.56 537.096 1279.14 531.226C1190.93 524.075 1172.85 446.678 1075.5 426.586C970.079 404.828 908.207 478.448 856.725 455.832C795.848 429.089 788.375 284.863 898.562 223.047C1031.3 148.58 1304.76 210.563 1394.3 321.291Z"
      fill="#EBC136" />
    <path opacity="0.2"
      d="M625.875 537.026C656.743 515.853 690.379 473.194 669.489 430.045C667.335 425.596 646.76 384.932 598.481 375.139C539.677 363.21 510.517 411.431 442.872 406.407C369.616 400.967 346.078 340.129 307.603 345.472C262.107 351.792 224.779 446.615 282.304 508.724C351.603 583.546 542.874 593.959 625.875 537.026Z"
      fill="#EBC136" />
    <path opacity="0.2"
      d="M807.066 417.393C791.774 393.975 776.149 348.922 789.548 307.439C790.929 303.163 804.028 264.136 830.222 257.963C862.127 250.444 875.075 300.711 911.315 300.738C950.561 300.767 966.306 241.838 986.484 250.033C1010.34 259.723 1025.16 357.082 991.276 414.747C950.454 484.216 848.184 480.359 807.066 417.393Z"
      fill="#EBC136" />
    <path opacity="0.2"
      d="M795.033 365.111C811.745 353.255 829.968 329.393 818.694 305.304C817.531 302.821 806.425 280.12 780.313 274.69C748.508 268.077 732.703 295.042 696.111 292.294C656.484 289.317 643.787 255.348 622.97 258.367C598.353 261.936 578.101 314.945 609.183 349.595C646.627 391.338 750.096 396.99 795.033 365.111Z"
      fill="#EBC136" />
    <path opacity="0.2"
      d="M1113.72 344.854C1131.75 326.735 1096.74 314.96 1085.06 279.096C1083.86 275.398 1127.16 217.243 1099.36 209.653C1065.49 200.409 1048.21 241.152 1009.18 237.801C966.91 234.172 953.86 183.53 931.585 188.491C905.246 194.357 882.828 274.224 915.5 325.5C954.86 387.272 1065.26 393.573 1113.72 344.854Z"
      fill="#8047F8" />
    <path opacity="0.2"
      d="M335.394 211.99C347.885 236.111 360.233 282.121 348.072 323.685C346.818 327.971 334.959 367.061 312.655 372.55C285.488 379.236 275.508 328.031 244.818 326.962C211.582 325.804 197.092 384.944 180.165 376.077C160.149 365.591 149.509 266.709 179.338 209.368C215.272 140.291 301.807 147.132 335.394 211.99Z"
      fill="#EBC136" />
    <path opacity="0.2"
      d="M972.954 540.698C947.229 519.358 922.227 476.56 948.526 433.645C951.238 429.22 976.857 388.784 1023.73 379.342C1080.82 367.842 1100.75 416.16 1165.08 411.611C1234.74 406.684 1266.26 346.136 1301.58 351.733C1343.35 358.35 1363.75 453.228 1300.1 514.811C1223.43 588.999 1042.12 598.079 972.954 540.698Z"
      fill="#EBC136" />
    <path opacity="0.2"
      d="M899.829 503.605C921.336 482.481 943.879 441.835 926.705 404.398C924.934 400.539 908.102 365.318 872.509 359.738C829.156 352.94 810.125 398.292 760.651 398.301C707.072 398.311 687.164 345.132 659.398 352.518C626.565 361.253 603.711 449.096 648.419 501.143C702.279 563.843 841.999 560.404 899.829 503.605Z"
      fill="#8047F8" />
    <path opacity="0.2"
      d="M947.081 216.556C987.375 228.393 1030.17 250.376 999.615 269.021C996.466 270.943 966.481 288.456 901.009 289.841C821.264 291.528 784.811 267.258 693.573 265.165C594.768 262.897 559.647 289.573 508.221 284.578C447.412 278.673 402.636 232.257 483.525 207.215C580.97 177.047 838.734 184.725 947.081 216.556Z"
      fill="#8047F8" />
  </g>
  <defs>
    <filter id="filter0_f_212_16580" x="-70" y="-100" filterUnits="userSpaceOnUse" color-interpolation-filters="sRGB">
      <feFlood flood-opacity="0" result="BackgroundImageFix" />
      <feBlend mode="normal" in="SourceGraphic" in2="BackgroundImageFix" result="shape" />
      <feGaussianBlur stdDeviation="50" result="effect1_foregroundBlur_212_16580" />
    </filter>
  </defs>
</svg>
